<svg width="28" height="28" viewBox="0 0 28 28" fill="none" xmlns="http://www.w3.org/2000/svg">
<g clip-path="url(#clip0_2311_6742)">
<path d="M20.3008 22.4297L21.0859 21.0469C21.2969 20.6953 21.1914 20.2734 20.8398 20.0625C20.4883 19.8633 20.0781 19.9922 19.8672 20.332L19.0703 21.75C18.8828 22.0781 18.9648 22.4883 19.3281 22.6992C19.6797 22.8984 20.1016 22.7695 20.3008 22.4297ZM18.2266 25.9219C18.918 25.9219 19.4922 25.3359 19.4922 24.6328C19.4922 23.9531 18.918 23.3672 18.2266 23.3672C17.5234 23.3672 16.9492 23.9531 16.9492 24.6328C16.9492 25.3359 17.5234 25.9219 18.2266 25.9219Z" fill="black" fill-opacity="0.85"/>
<path d="M13.1289 24.1759L14.957 21.0118C15.1562 20.6485 15.0508 20.2384 14.7109 20.0392C14.3477 19.8282 13.9375 19.9454 13.7383 20.3087L11.8984 23.4962C11.6992 23.836 11.8047 24.2462 12.168 24.4454C12.5078 24.6446 12.9414 24.5274 13.1289 24.1759ZM11.0547 27.6681C11.7461 27.6681 12.332 27.0821 12.332 26.379C12.332 25.6993 11.7578 25.1251 11.0547 25.1251C10.3633 25.1251 9.78906 25.6993 9.78906 26.379C9.78906 27.0821 10.3633 27.6681 11.0547 27.6681Z" fill="black" fill-opacity="0.85"/>
<path d="M8.01953 22.3829L8.80469 21.0001C9.01562 20.6485 8.91016 20.2267 8.55859 20.0157C8.20703 19.8165 7.79688 19.9454 7.58594 20.2853L6.78906 21.7032C6.60156 22.0313 6.68359 22.4415 7.04688 22.6524C7.39844 22.8517 7.82031 22.7345 8.01953 22.3829ZM5.94531 25.8751C6.63672 25.8751 7.21094 25.2892 7.21094 24.586C7.21094 23.9063 6.63672 23.3321 5.94531 23.3321C5.24219 23.3321 4.66797 23.9063 4.66797 24.586C4.66797 25.2892 5.24219 25.8751 5.94531 25.8751Z" fill="black" fill-opacity="0.85"/>
<path d="M6.50781 18.1641H21.0508C24.8945 18.1641 27.7539 15.2461 27.7539 11.6367C27.7539 7.89844 24.707 5.16797 20.7344 5.16797C19.2695 2.27344 16.5508 0.410156 13.1641 0.410156C8.75781 0.410156 5.125 3.86719 4.73828 8.21484C2.61719 8.83594 1 10.6758 1 13.1484C1 15.9258 3.01562 18.1641 6.50781 18.1641ZM6.48438 16.2891C4.08203 16.2891 2.875 14.9414 2.875 13.207C2.875 11.8008 3.69531 10.5352 5.6875 10.0078C6.33203 9.83203 6.56641 9.52734 6.625 8.87109C6.89453 5.03906 9.76562 2.28516 13.1641 2.28516C15.8008 2.28516 17.875 3.73828 19.1406 6.32812C19.4102 6.90234 19.7617 7.10156 20.4531 7.10156C23.9219 7.10156 25.8789 9.1875 25.8789 11.6836C25.8789 14.2383 23.8398 16.2891 21.168 16.2891H6.48438Z" fill="black" fill-opacity="0.85"/>
</g>
<defs>
<clipPath id="clip0_2311_6742">
<rect width="26.7539" height="27.668" fill="white" transform="translate(1)"/>
</clipPath>
</defs>
</svg>
